<svg width="59" height="59" viewBox="0 0 59 59" fill="none" xmlns="http://www.w3.org/2000/svg">
<circle cx="29.5" cy="29.5" r="29.5" fill="black"/>
<path fill-rule="evenodd" clip-rule="evenodd" d="M24.1751 31.4213H25.5397C26.0064 31.4213 26.4545 31.3839 26.8839 31.3091C26.8058 31.8209 26.7668 32.3657 26.7668 32.9435V33.8128C26.7668 34.9517 26.9184 35.9625 27.2217 36.8453C27.5317 37.7281 27.9697 38.4761 28.5358 39.0893C29.1018 39.6958 29.7791 40.1574 30.5675 40.4742C31.356 40.7842 32.232 40.9391 33.1957 40.9391C34.2604 40.9391 35.1769 40.828 35.9451 40.6056C36.7134 40.3764 37.3434 40.1035 37.8354 39.7868C38.334 39.4701 38.7047 39.1736 38.9473 38.8973V32.9637H33.0339V35.2583H35.652V37.7045C35.5576 37.7988 35.4161 37.9033 35.2274 38.0179C35.0387 38.1257 34.7961 38.2166 34.4996 38.2908C34.2031 38.3582 33.8392 38.3919 33.4079 38.3919C32.8554 38.3919 32.3702 38.2941 31.9524 38.0987C31.5413 37.9033 31.201 37.6169 30.9314 37.2395C30.6619 36.8554 30.4563 36.3769 30.3148 35.8041C30.18 35.2313 30.1126 34.5676 30.1126 33.8128V32.9233C30.1126 32.1685 30.18 31.5081 30.3148 30.9421C30.4496 30.3693 30.645 29.8908 30.9011 29.5067C31.1572 29.1226 31.4705 28.8362 31.8412 28.6475C32.2185 28.452 32.6397 28.3543 33.1047 28.3543C33.6842 28.3543 34.156 28.452 34.5199 28.6475C34.8838 28.8362 35.1634 29.1091 35.3588 29.4662C35.561 29.8234 35.6958 30.248 35.7632 30.7399H38.9372C38.8361 29.7762 38.5665 28.9238 38.1285 28.1825C37.6972 27.4412 37.0638 26.8617 36.2282 26.4439C35.3925 26.0193 34.3177 25.807 33.0036 25.807C32.7199 25.807 32.4439 25.822 32.1754 25.8519C32.2532 25.388 32.292 24.9027 32.292 24.396V23.739C32.292 22.6877 32.1269 21.7342 31.7967 20.8783C31.4665 20.0225 30.9981 19.2812 30.3917 18.6545C29.7919 18.0278 29.0776 17.546 28.2487 17.209C27.4266 16.8721 26.5168 16.7036 25.5195 16.7036H24.1751H22.2444H20.8798V31.4213H22.305H24.1751ZM24.1751 28.874H25.5397C26.2742 28.874 26.8942 28.7055 27.3996 28.3686C27.905 28.0249 28.2891 27.5195 28.5519 26.8523C28.8148 26.1784 28.9462 25.3597 28.9462 24.396V23.7188C28.9462 22.991 28.872 22.3508 28.7238 21.7982C28.5755 21.2389 28.3565 20.7705 28.0667 20.3931C27.777 20.0158 27.4164 19.7327 26.9852 19.544C26.5606 19.3554 26.072 19.261 25.5195 19.261H24.1751V28.874Z" fill="white"/>
</svg>
