<svg width="199" height="80" viewBox="0 0 199 80" fill="none" xmlns="http://www.w3.org/2000/svg">
<path d="M0.723851 79.7535L10.6783 73.9019L0.633411 68.2069L0.723851 79.7535ZM78.9856 17.1002L78.4962 16.2281L78.9856 17.1002ZM98.7617 5.02459L97.9937 4.38415L98.7617 5.02459ZM79.4115 3.31778L79.5436 4.30901L79.4115 3.31778ZM16.2376 32.3582L16.8996 33.1077L16.2376 32.3582ZM27.0505 36.0343L26.9787 37.0318L27.0505 36.0343ZM71.2822 36.8402L71.2642 37.8401L71.2822 36.8402ZM73.7891 55.2619L74.5255 55.9384L73.7891 55.2619ZM71.6433 63.3936L71.4836 62.4064L71.6433 63.3936ZM105.589 57.5182L105.411 56.5343L105.589 57.5182ZM182.792 43.2353L182.99 44.2155L182.792 43.2353ZM115.841 36.9763L116.014 35.9914L115.841 36.9763ZM129.92 27.0959C130.426 26.8735 130.656 26.2835 130.433 25.7779C130.211 25.2724 129.621 25.0427 129.115 25.2651L129.92 27.0959ZM5.96073 72.5268C13.3613 62.7266 27.9208 51.217 42.6143 41.0544C57.2755 30.9142 71.9499 22.1955 79.4751 17.9722L78.4962 16.2281C70.9298 20.4746 56.2003 29.2261 41.4767 39.4095C26.7854 49.5705 11.9792 61.238 4.36468 71.3216L5.96073 72.5268ZM79.4751 17.9722C80.9069 17.1687 82.5651 16.3548 84.3438 15.4904C86.1133 14.6305 87.9968 13.723 89.8397 12.7474C93.5055 10.8067 97.1379 8.53319 99.5297 5.66504L97.9937 4.38415C95.8676 6.93367 92.5352 9.05742 88.904 10.9798C87.0984 11.9357 85.2503 12.8262 83.4696 13.6916C81.6981 14.5525 79.9876 15.3911 78.4962 16.2281L79.4751 17.9722ZM99.5297 5.66504C100.104 4.97698 100.54 4.15756 100.364 3.29C100.182 2.38765 99.4377 1.88917 98.7707 1.61483C98.077 1.32947 97.1965 1.16815 96.2485 1.07811C95.2865 0.98674 94.1898 0.963316 93.0293 0.985738C88.4063 1.07506 82.4679 1.90157 79.2794 2.32654L79.5436 4.30901C82.7734 3.87854 88.5837 3.072 93.0679 2.98537C94.1842 2.9638 95.1993 2.98745 96.0594 3.06915C96.9335 3.15217 97.5855 3.28989 98.01 3.46449C98.4612 3.6501 98.4214 3.77247 98.404 3.6868C98.3937 3.6359 98.4567 3.82898 97.9937 4.38415L99.5297 5.66504ZM79.2794 2.32654C57.8743 5.17942 31.987 17.1127 15.5756 31.6087L16.8996 33.1077C33.0202 18.8686 58.5406 7.10829 79.5436 4.30901L79.2794 2.32654ZM15.5756 31.6087C15.131 32.0014 14.7164 32.5478 14.7274 33.2443C14.7387 33.9564 15.1862 34.4523 15.586 34.7548C16.3627 35.3426 17.6481 35.7318 18.9349 36.0155C21.5995 36.6028 25.0828 36.8954 26.9787 37.0318L27.1222 35.0369C25.2211 34.9002 21.8713 34.6147 19.3654 34.0624C18.067 33.7761 17.1828 33.4551 16.7929 33.16C16.6093 33.0211 16.7243 33.0323 16.7272 33.2127C16.7298 33.3775 16.6309 33.345 16.8996 33.1077L15.5756 31.6087ZM26.9787 37.0318C41.7493 38.0941 56.5845 37.5761 71.2642 37.8401L71.3002 35.8404C56.4702 35.5738 41.8296 36.0948 27.1222 35.0369L26.9787 37.0318ZM71.2642 37.8401C75.265 37.912 77.7834 38.4978 79.2376 39.3563C79.9457 39.7744 80.3757 40.2417 80.6239 40.7276C80.8723 41.2139 80.9748 41.7895 80.9134 42.4818C80.7867 43.91 79.9734 45.7132 78.5554 47.8289C77.1538 49.9201 75.2377 52.2068 73.0527 54.5854L74.5255 55.9384C76.7379 53.5302 78.7324 51.1572 80.2168 48.9424C81.6849 46.752 82.7331 44.6027 82.9056 42.6586C82.9937 41.6647 82.8553 40.6992 82.4049 39.8177C81.9544 38.9359 81.2278 38.2088 80.2543 37.6341C78.3453 36.5071 75.4005 35.9141 71.3002 35.8404L71.2642 37.8401ZM73.0527 54.5854C73.0552 54.5826 73.0222 54.6161 72.9212 54.7055C72.8311 54.7851 72.7108 54.8884 72.5616 55.0144C72.2636 55.266 71.8674 55.5941 71.4015 55.9792C70.4731 56.7465 69.2792 57.7309 68.0922 58.7415C66.9077 59.75 65.7155 60.7969 64.7925 61.6902C64.3324 62.1355 63.9236 62.5575 63.6121 62.9271C63.4565 63.1116 63.3132 63.2971 63.1972 63.4766C63.0906 63.6415 62.9632 63.8669 62.9019 64.1222L64.8466 64.589C64.8292 64.6616 64.813 64.6611 64.8767 64.5626C64.9308 64.4788 65.0168 64.3637 65.1413 64.2161C65.3898 63.9212 65.744 63.5526 66.1834 63.1274C67.0595 62.2795 68.2126 61.2657 69.3887 60.2643C70.5623 59.2651 71.7441 58.2907 72.6757 57.5208C73.1397 57.1372 73.5445 56.8021 73.8521 56.5423C74.1327 56.3053 74.3978 56.0774 74.5255 55.9384L73.0527 54.5854ZM62.9019 64.1222C62.796 64.5633 62.768 65.1245 63.0961 65.6155C63.4306 66.1161 63.9565 66.2789 64.3469 66.3269C65.0811 66.4172 66.021 66.1879 66.85 65.9408C67.7245 65.6801 68.7116 65.3212 69.5818 65.0223C70.4897 64.7105 71.2565 64.4692 71.803 64.3807L71.4836 62.4064C70.7421 62.5264 69.8176 62.8267 68.9322 63.1308C68.0091 63.4478 67.1007 63.7791 66.2788 64.0241C65.4114 64.2826 64.854 64.3742 64.591 64.3419C64.4829 64.3286 64.6353 64.3191 64.759 64.5043C64.8763 64.6799 64.8002 64.7823 64.8466 64.589L62.9019 64.1222ZM71.803 64.3807C83.0973 62.5531 94.5376 60.5436 105.768 58.5021L105.411 56.5343C94.1872 58.5745 82.7606 60.5816 71.4836 62.4064L71.803 64.3807ZM105.768 58.5021C131.488 53.8269 157.341 49.3988 182.99 44.2155L182.594 42.2551C156.97 47.4333 131.157 51.8543 105.411 56.5343L105.768 58.5021ZM182.99 44.2155C188.064 43.1901 191.695 42.3309 194.146 41.6106C195.369 41.2511 196.323 40.9188 197.025 40.6082C197.376 40.4529 197.684 40.2942 197.939 40.1288C198.181 39.9713 198.439 39.7675 198.624 39.4999C198.827 39.2053 198.972 38.7737 198.811 38.299C198.671 37.8853 198.36 37.6374 198.141 37.5004C197.703 37.2266 197.081 37.0591 196.449 36.9381C195.127 36.6851 193.185 36.5369 190.942 36.4544C181.973 36.1246 167.166 36.8265 164.509 36.8516L164.528 38.8515C167.356 38.8248 181.944 38.1249 190.869 38.4531C193.099 38.5351 194.912 38.6801 196.073 38.9024C196.682 39.019 196.983 39.1346 197.081 39.1961C197.13 39.2267 196.991 39.1595 196.917 38.9403C196.822 38.6602 196.927 38.4371 196.976 38.3656C197.007 38.3212 196.998 38.3552 196.85 38.4511C196.714 38.5391 196.509 38.6493 196.215 38.7793C195.628 39.0392 194.768 39.343 193.582 39.6918C191.214 40.3878 187.649 41.2336 182.594 42.2551L182.99 44.2155ZM164.509 36.8516C148.639 37.0009 131.53 38.7101 116.014 35.9914L115.668 37.9613C131.426 40.7223 148.921 38.9984 164.528 38.8515L164.509 36.8516ZM116.014 35.9914C114.447 35.7168 113.672 35.3805 113.357 35.1223C113.225 35.0141 113.244 34.9772 113.252 35.0246C113.26 35.0664 113.234 35.0408 113.307 34.9078C113.477 34.5964 113.943 34.1337 114.795 33.5602C115.613 33.0098 116.668 32.4328 117.86 31.8556C120.239 30.7023 123.065 29.5929 125.393 28.7315C126.554 28.3019 127.586 27.9361 128.37 27.659C129.121 27.3939 129.714 27.1868 129.92 27.0959L129.115 25.2651C128.999 25.3162 128.524 25.4834 127.704 25.7732C126.918 26.0511 125.875 26.4208 124.699 26.8558C122.354 27.7237 119.456 28.8597 116.987 30.0557C115.755 30.6531 114.606 31.2767 113.678 31.9012C112.785 32.5027 111.966 33.1894 111.551 33.9502C111.331 34.3533 111.188 34.8444 111.284 35.3773C111.38 35.9159 111.692 36.3443 112.089 36.6692C112.831 37.2773 114.054 37.6786 115.668 37.9613L116.014 35.9914Z" fill="black"/>
</svg>
