<svg width="147" height="110" viewBox="0 0 147 110" fill="none" xmlns="http://www.w3.org/2000/svg">
<path d="M37.0884 75.5553C29.1604 80.9288 21.2325 86.3023 13.3046 91.6757C11.8181 92.6832 10.3316 93.6908 8.84516 94.6983C8.4873 94.9408 7.41373 95.6685 7.77158 95.4259C8.30837 95.0621 8.84515 94.6983 9.38194 94.3345M145.667 0.912541C114.822 21.8187 63.4735 57.6718 32.6289 78.5779C24.1229 84.3432 15.5544 90.0173 7.11092 95.8737C5.49781 96.9926 3.84957 98.0737 2.3505 99.3413C0.214501 101.148 1.72685 100.954 3.52319 100.716C20.4003 98.4748 37.6031 85.165 51.6523 76.7719C73.2798 63.8516 94.7104 50.6006 115.567 36.4645C116.393 35.9044 118.865 34.2264 118.1 34.8679C113.525 38.7045 108.961 42.5033 104.576 46.5654C100.773 50.0879 86.0538 60.7234 86.4844 67.0833C86.8804 72.934 114.186 56.6356 117.151 55.5173C118.979 54.8281 115.8 56.5658 118.333 56.283C122.996 55.7624 106.942 65.0886 106.821 65.1704C97.4348 71.5325 88.0197 77.8549 78.6607 84.2574C77.0851 85.3352 67.0763 92.3425 75.5524 88.4733C83.3404 84.9182 90.2946 79.6261 97.3491 74.8446C107.752 67.7935 89.6982 80.0303 88.9257 80.5539C78.3849 87.6984 67.7571 94.7307 57.3246 102.033C55.5547 103.272 52.6014 105.268 50.846 106.967C49.0574 108.697 51.1503 108.355 52.4169 107.951C62.454 104.745 71.3157 97.9132 79.9243 92.0784C84.1436 89.2186 89.0644 84.5653 94.0633 82.9772C97.932 81.7482 101.191 79.2751 104.997 78.0373C110.905 76.116 99.0868 86.631 98.2742 87.2339C88.0266 94.8369 99.3074 90.5966 104.352 89.6223" stroke="black" stroke-width="1.79576" stroke-linecap="round"/>
</svg>
